<?xml version="1.0" encoding="utf-8"?>
<svg version="1.1" id="Layer_1" xmlns="http://www.w3.org/2000/svg" xmlns:xlink="http://www.w3.org/1999/xlink" x="0px" y="0px"
	 viewBox="0 0 432 87" height="24" style="enable-background:new 0 0 432 87;" xml:space="preserve">
<style type="text/css">
	.st0{enable-background:new    ;}
	.st1{fill:#FFFFFF;}
</style>
<g class="st0">
	<path class="st1" d="M3.5,64.5l0.8-10.7c4.3,2.7,12.2,5,17.2,5c3.3,0,5.4-1.1,5.4-3.6c0-2.8-4-4-8.5-5.3c-6.6-2-14.6-4.8-14.6-13.2
		c0-9.2,6.7-13.2,15.7-13.2c5.1,0,11.2,1.2,16.8,3.3l-0.8,10c-3.7-1.7-10.5-3.9-14.6-3.9c-2.8,0-4.8,1.1-4.8,3.2
		c0,2.6,3.4,3.2,7.5,4.4c6.4,1.9,14.7,4.9,14.7,14c0,10-7.9,14.4-18.3,14.4C13.8,68.8,7.4,67.2,3.5,64.5z"/>
	<path class="st1" d="M108,34.8v32.7H95.7V40c0-3.4-2.1-5.5-5.2-5.5c-2.4,0-5.2,1.6-7.4,4.1v29H70.8V40c0-3.4-2.1-5.5-5.2-5.5
		c-2.4,0-5.2,1.6-7.3,4.1L58,36.9l0.3,1.7v29H45.9V24.8H56l1,6c3.9-4.4,8.6-7.3,14.3-7.3s9.9,2.8,11.3,7.4c2.4-4.4,8.2-7.4,13.6-7.4
		C103.4,23.6,108,28,108,34.8z"/>
	<path class="st1" d="M158.5,46c0,14.5-6.4,22.8-16.6,22.8c-4.7,0-8.7-1.8-11.8-5.9v22.4h-12.4V24.8h10.1l1,4.7
		c2.8-4.2,7.7-6,12.7-6C150.8,23.6,158.5,31.6,158.5,46z M145.7,46.1c0-7.8-3-12.3-8.4-12.3c-2.8,0-5.3,1.1-7.2,3.2v18.1
		c1.9,2.1,4.4,3.3,7.2,3.3C142.6,58.5,145.7,54,145.7,46.1z"/>
	<path class="st1" d="M166.8,2.7h12.4v64.9h-12.4V2.7z"/>
	<path class="st1" d="M201.8,38.5l-0.1-0.4v29.5h-12.4V24.8h10.1l1.2,5.8c3.9-4.4,8.6-7,13.7-7l1.2,10.3
		C210.2,34,205,35.6,201.8,38.5z"/>
</g>
<g class="st0">
	<path class="st1" d="M221.3,64.6l0.7-6c3.5,2.3,10.5,4.1,15.3,4.1c5.3,0,8.8-2,8.8-6.3c0-4.3-5.1-6.2-10.5-7.8
		c-6.5-1.9-13.6-4.4-13.6-12.3c0-8,6.5-11.8,14.6-11.8c4.4,0,10,1.2,13.6,2.9l-0.5,5.7c-3.3-1.4-8.8-3-12.7-3c-4.7,0-8.2,2.2-8.2,6
		c0,4.1,4.5,5.3,9.7,6.8c6.8,1.9,14.2,4.7,14.2,12.8c0,8.4-6.3,12.9-16.2,12.9C230.9,68.5,224.6,66.9,221.3,64.6z"/>
	<path class="st1" d="M300.5,46.6c0,13.8-6.6,22-17.3,22c-5.3,0-10-2-13-5.8v22.6h-6.8V25.4h5.4l0.7,5.1c3.9-4.4,8.9-6,13.6-6
		C293.6,24.4,300.5,33,300.5,46.6z M293.5,46.6c0-10.1-4.4-16.2-11.8-16.2c-4.5,0-8.7,2.2-11.5,5.9v20.5c2.7,3.8,6.8,5.8,11.3,5.8
		C288.9,62.6,293.5,56.9,293.5,46.6z"/>
	<path class="st1" d="M341.7,37.1v30.5h-5.6l-0.7-5.2c-4,3.8-9.6,6.1-14.7,6.1c-7.2,0-11.9-4.7-11.9-11.7c0-10,9.4-15.6,26-15.6
		v-4.3c0-4.2-2.7-6.7-8.4-6.7c-4.7,0-9.4,1.4-13.9,3.7l-1.8-5c5.2-2.9,11.7-4.5,16.7-4.5C336.1,24.4,341.7,29.3,341.7,37.1z
		 M334.8,57.5V45.9c-12.2,0-19,3.6-19,10.1c0,4.1,2.6,7,7.1,7C326.7,63,331.4,60.9,334.8,57.5z"/>
	<path class="st1" d="M352.6,46.5c0-14.1,7-22,19.3-22c5.8,0,10.6,1.8,13.5,4.9l-1.5,6.1c-2.8-3.3-7-5.1-11.5-5.1
		c-8.3,0-12.9,5.8-12.9,16.1c0,10.4,4.6,16.1,12.7,16.1c4.9,0,9.2-2.1,12.5-5.9l1.5,6c-3.4,3.7-8.4,5.8-14.5,5.8
		C359.6,68.5,352.6,60.6,352.6,46.5z"/>
	<path class="st1" d="M393.9,46.6c0-14.2,7.2-22.1,18.9-22.1c11.5,0,16.8,7.1,16.8,19.8c0,0.7-0.1,2-0.1,2.8H401
		c0,10.3,4.8,15.5,13.1,15.5c5.4,0,10.2-2.1,13.7-5.7l0.9,6c-3.6,3.6-9,5.7-15.5,5.7C401,68.5,393.9,60.6,393.9,46.6z M422.6,42.3
		c0-7.6-3.3-11.9-9.8-11.9c-7.4,0-10.9,5-11.6,11.9H422.6z"/>
</g>
</svg>
